<svg xmlns="http://www.w3.org/2000/svg" width="146" height="40" viewBox="0 0 146 40">
    <path fill="#000" fill-rule="nonzero" d="M97.857 30.81h-3.143a.18.18 0 0 1-.18-.18V.18c0-.1.08-.18.18-.18h3.143c.1 0 .18.08.18.18v30.45c0 .1-.08.18-.18.18zm-80.753-6.756a.135.135 0 0 0-.123.08c-1.156 2.607-3.457 4.064-6.203 4.064-3.968 0-7.185-3.215-7.185-8.198 0-4.983 2.972-8.198 7.185-8.198 2.915 0 5.15 1.456 6.25 4.061.021.05.07.083.124.083h3.632a.09.09 0 0 0 .088-.114c-1.306-4.853-5.05-7.183-10.094-7.183C4.458 8.649 0 13.1 0 20c0 6.9 4.825 11.351 10.778 11.351 4.751 0 8.668-2.33 10.06-7.182a.09.09 0 0 0-.09-.115h-3.644zm26.15-6.291l-.04 12.846c0 .1-.08.18-.18.18h-2.879a.18.18 0 0 1-.18-.176l-.063-2.934c-1.222 1.58-3.883 3.648-7.149 3.648-4.37 0-8.005-2.214-8.005-6.413 0-7.153 8.281-7.568 13.572-7.568h1.38V16.7c0-3.137-1.979-4.752-5.337-4.752-2.257 0-4.602.755-6.298 2.265a.134.134 0 0 1-.187-.007l-2.042-2.131a.18.18 0 0 1 .005-.254c2.203-2.174 5.36-3.196 8.43-3.196 6.349 0 8.972 3.046 8.972 9.137zm-3.5 2.63h-3.633c-4.554 0-7.5 1.246-7.5 4.153 0 2.014 1.109 3.094 2.785 3.52.293.074 3.155.716 5.385-.93 2.108-1.555 2.758-3.16 2.895-4.9.067-.84.069-1.843.069-1.843zm33.522-5.363c0 3.173 1.866 4.943 5.963 5.94l3.753.915c2.332.57 3.468 1.587 3.468 3.092 0 2.014-2.11 3.418-5.05 3.418-2.74 0-4.467-1.13-5.092-2.913a.18.18 0 0 0-.169-.118h-3.36a.09.09 0 0 0-.089.1c.436 3.584 3.765 5.88 8.588 5.88 4.969 0 8.762-2.705 8.762-6.63 0-3.154-1.988-4.944-6.105-5.941l-3.368-.814c-2.576-.63-3.793-1.566-3.793-3.072 0-1.953 2.028-3.275 4.626-3.275 2.556 0 4.235 1.09 4.76 2.75.03.095.116.16.214.16h3.177a.09.09 0 0 0 .09-.104c-.514-3.541-3.683-5.776-8.219-5.776-4.647 0-8.156 2.746-8.156 6.388zm64.576 4.74l7.752-10.437a.09.09 0 0 0-.072-.144h-4.002a.18.18 0 0 0-.146.076l-5.758 8.111-5.759-8.111a.18.18 0 0 0-.146-.076h-4.002a.09.09 0 0 0-.072.144l7.752 10.437-8.098 10.897a.09.09 0 0 0 .072.144h4.001a.18.18 0 0 0 .147-.076l6.105-8.663 6.104 8.661a.18.18 0 0 0 .147.076h4.002a.09.09 0 0 0 .072-.144l-8.099-10.895zm-13.858.207c0 6.9-4.825 11.352-10.778 11.352-5.952 0-10.778-4.452-10.778-11.352s4.46-11.35 10.778-11.35c6.32 0 10.778 4.45 10.778 11.35zm-3.592 0c0-4.982-2.972-8.198-7.186-8.198-4.213 0-7.185 3.216-7.185 8.198 0 4.983 3.217 8.199 7.185 8.199 3.968 0 7.186-3.216 7.186-8.199zm-50.209 0c0 6.9-4.825 11.352-10.778 11.352-3.03 0-5.499-1.313-7.194-3.43v3.037a.17.17 0 0 1 .008.055v8.829c0 .1-.08.18-.18.18h-3.143a.18.18 0 0 1-.18-.18V39.4a.18.18 0 0 1-.009-.054v-30c0-.1.08-.18.18-.18h3.143c.1 0 .18.08.18.18v2.54c1.646-2.018 4.065-3.26 7.194-3.26 6.32 0 10.78 4.45 10.78 11.35zm-3.593 0c0-4.982-2.972-8.198-7.185-8.198-4.213 0-7.186 3.216-7.186 8.198 0 4.983 3.218 8.199 7.186 8.199S66.6 24.96 66.6 19.977z"/>
</svg>
